<svg version="1.0" xmlns="http://www.w3.org/2000/svg" width="1706.667" height="1416" viewBox="0 0 1280 1062"><path fill="#6e9f53" d="M291 1.1c-22.7 2.9-44.4 14.1-63.3 32.5-10.8 10.7-18.7 20.2-36.2 43.9-27.1 36.9-37.1 47.3-53.7 56-16.9 8.9-30.7 11.9-76.7 16.5-32.7 3.3-43.5 6.1-51.7 13.3-5.6 5-8.5 10.5-9.1 17.7-1.6 17.1 9.3 28.5 33.1 34.5 13 3.3 27.8 4.6 54.6 4.8l23.5.2 17.7-4.7c9.7-2.6 28.1-8.1 41-12.2 26.6-8.5 31.6-9.9 41.3-11.7 9.2-1.8 39.9-1.8 58.3 0l14.4 1.4-.8 10.1c-.4 5.6-.7 31-.6 56.6.3 65-1.3 90.2-7.4 117.8-4.5 20.4-9.7 33.9-30.3 79.6-13.8 30.4-18.8 43.2-23 57.7-8.8 30.4-10.3 64.8-4.2 99.4 15 85.9 77.6 169.1 163.6 217.5 42.5 23.9 89 42.7 131 53 9.4 2.3 17.1 4.3 17.2 4.4 0 0 1.9 9.3 4.2 20.6 6.5 32.7 7.4 43.9 4.5 57.8-2.9 14.3-9.9 23.8-21.3 29-7.4 3.4-21.9 4-46.1 1.9-20.4-1.8-35.4-1.1-62 2.8-53.2 7.9-55.6 8.3-48.8 8.4 4.7.1 12.8 3.1 17.9 6.7 4.5 3.1 9.6 10.3 10.4 14.8l.6 3.1 12.7.1c7 0 16.1.6 20.2 1.3 17.9 3 29.8 5.9 35 8.6 2.3 1.2 3.1 1 8.4-2.6 7.8-5.2 15.4-7.4 36.9-10.5 12.2-1.7 21-3.6 26.7-5.6 10.2-3.6 12-3.6 17.8-.2 6.4 3.8 11.7 9.7 14.3 15.9 1.2 3 2.6 5.5 2.9 5.5.4 0 1.7-1.1 3-2.5 4.6-4.9 12.6-9.7 16.5-9.8 4.4-.1 6.1 1.6 10.7 10.8 4.1 8.3 9.1 13.2 15.2 15 6.6 2 12.1 1.9 25.1-.5 14.1-2.6 21.6-2.6 40.5.2l15.5 2.2 9-2.2c5-1.2 12.4-3.1 16.5-4.2 4.1-1.2 14.9-3.8 24-6 16.2-3.8 34-9.5 34-10.9 0-1.3-47.3-19.8-56.8-22.2-5.1-1.3-9-2.8-8.8-3.4 1.3-2.9 6.6-20.8 7.8-26 .9-4 1.3-13.4 1.3-28-.1-23.3-1.2-32.4-8.1-62.9-1.3-6-2.4-11.1-2.4-11.4 0-1.1 26.6.8 46 3.3 16.4 2.2 23.2 2.6 34 2.2 14.3-.4 19.6-1.4 97-18.2 16.2-3.5 39.6-8.2 52-10.5 60.2-10.9 88.2-18.6 108.6-29.9 6.9-3.9 17.4-12.4 17.4-14.2 0-.5-1.3-.9-2.8-.9-5.4 0-4.1-1.3 5.2-5.5 23.4-10.5 42.9-22.4 54.6-33.2 14.4-13.3 14.7-24.3.8-31.7-3.2-1.7-5.6-3.5-5.5-4 .8-2.6 31-19.1 70.6-38.7 45.4-22.4 57.6-29.1 71.6-38.7 9.6-6.6 22.5-17.3 22.5-18.6 0-1.4-39.1 0-50.5 1.9-23.1 3.7-49 9.8-81 19.1-51.1 14.9-65 18.9-76.7 21.9-7.1 1.8-12.8 3.1-12.8 2.9 0-.9 21.3-11 47.3-22.5 14.9-6.6 34-15.6 42.4-19.9 14.5-7.5 31.8-17.9 31-18.6-.2-.2-16.5 5.1-36.3 11.7-50.9 17.1-69.3 22.1-93 25.4-26.1 3.7-44.6.2-54.6-10.2-3.8-4-8.2-12.3-7-13.4.4-.3 4.8-1.4 9.7-2.3 13-2.5 42.7-10 59.5-15.1 25.9-7.8 32-9.8 32-10.5 0-.8-21.1-5.9-27.5-6.6-4.3-.5-7.7.3-25.5 6.1-25.4 8.3-32.1 9.1-41.9 5.1-8.5-3.4-25-14.6-44.5-30.1-26.9-21.3-36.6-27.4-71.6-45-46.9-23.5-89.1-39.6-148.2-56.5-62.7-18-87.9-22.8-122.9-23.7-22.8-.6-30.4 0-58 4.3-49.7 7.7-71.4 7.2-96.3-2.3-13.9-5.2-32.1-20-41.4-33.6-8.5-12.2-15.4-29.7-19.1-48.4-4.1-20.4-5.7-55.7-4.2-91.3.9-21.1 1.3-24.7 4.1-35.8 4.1-16.2 9.4-29.1 25-61.2 14-28.9 19.8-42.6 23.2-55.3 3.3-12 3.3-35.5 0-47.7C424.3 36.9 354.4-7.1 291 1.1zm374.8 891.7c-.9 4.2-.5 6.8 2.6 19.3 5.6 22.6 6.7 28.7 7.3 39.9 1.5 29.8-13.5 49.3-45 58.4-12.6 3.7-26.3 5.4-55.3 7.1-14.3.8-27.7 1.7-29.9 2l-4 .5 2.5-1.7c5.1-3.4 15-14.5 18.6-20.9 4.5-8.1 8.1-19.2 9-27.6.4-4.1 0-11.3-1.1-19.9-3.8-28.5-2.3-36 9.4-48.1l7.6-7.9 17.5-1c9.6-.6 25.8-1.8 36-2.8 10.2-1 20.1-1.9 22.1-2l3.6-.1-.9 4.8z"/></svg>
